<?xml version="1.0" standalone="no"?>
<!DOCTYPE svg PUBLIC "-//W3C//DTD SVG 20010904//EN"
 "http://www.w3.org/TR/2001/REC-SVG-20010904/DTD/svg10.dtd">
<svg version="1.0" xmlns="http://www.w3.org/2000/svg"
 width="626.000000pt" height="626.000000pt" viewBox="0 0 626.000000 626.000000"
 preserveAspectRatio="xMidYMid meet">

<g transform="translate(0.000000,626.000000) scale(0.100000,-0.100000)"
fill="#2563EB" stroke="none">
<path d="M1608 5840 c-25 -26 -29 -36 -24 -63 3 -18 15 -39 26 -48 19 -17 18
-24 -113 -460 l-133 -443 -33 -7 c-39 -8 -60 -34 -61 -75 0 -39 36 -74 76 -74
28 0 34 -9 190 -322 133 -265 159 -324 148 -335 -53 -53 3 -146 77 -129 21 5
30 -3 71 -61 25 -38 63 -92 84 -121 22 -32 34 -56 28 -60 -27 -18 -44 -60 -44
-107 0 -90 55 -148 143 -151 26 -1 51 -4 54 -7 3 -3 123 -315 268 -694 l263
-688 -29 -33 c-44 -49 -41 -103 8 -149 l36 -35 -118 -551 c-65 -304 -120 -562
-123 -575 -3 -14 -12 -22 -24 -22 -11 0 -34 -7 -52 -15 -126 -60 -51 -251 84
-215 44 12 80 54 80 93 0 14 4 28 8 31 11 6 1223 228 1226 224 1 -2 10 -16 20
-31 39 -64 128 -73 180 -18 72 75 21 193 -85 196 l-41 1 -170 393 -169 393 20
22 c86 91 -3 219 -119 173 -11 -4 -45 34 -119 130 -95 124 -102 137 -92 160
18 40 13 73 -17 103 l-29 28 97 454 c93 434 98 453 120 456 38 6 68 31 82 68
6 19 17 34 23 34 5 0 48 4 95 10 277 31 1233 130 1234 128 1 -2 7 -16 14 -31
6 -15 28 -37 47 -49 41 -24 41 -39 0 -50 -74 -19 -86 -109 -22 -159 l21 -17
-40 -178 -39 -177 -34 -12 c-50 -16 -74 -51 -68 -97 4 -33 1 -41 -23 -58 -24
-17 -29 -18 -40 -5 -20 24 -92 19 -118 -8 -51 -55 -12 -147 63 -147 53 0 87
38 84 92 -3 35 1 44 23 61 24 18 28 18 49 3 37 -25 76 -20 111 14 26 27 30 36
25 68 -4 23 -17 46 -33 60 l-27 24 39 181 c38 178 40 182 66 187 36 7 66 33
74 66 8 33 -18 90 -45 99 -25 8 -28 35 -5 35 31 0 85 33 99 61 24 46 19 94
-15 132 -16 19 -43 37 -60 40 -25 5 -30 11 -30 34 0 16 -3 51 -6 78 -5 46 -4
51 17 60 13 6 28 22 33 37 12 35 -14 77 -53 84 -28 6 -33 17 -146 340 l-117
333 26 32 c21 24 27 41 24 67 -3 39 12 51 32 27 13 -15 65 -20 95 -9 20 8 45
56 45 86 0 83 -127 111 -166 36 -9 -18 -14 -42 -10 -59 6 -32 -6 -45 -24 -25
-19 24 -65 29 -100 11 -31 -16 -50 -49 -50 -86 0 -31 53 -79 87 -79 28 0 29
-1 146 -336 108 -307 117 -338 103 -353 -9 -10 -16 -32 -16 -49 0 -30 5 -38
42 -65 11 -8 18 -34 23 -84 l7 -72 -35 -15 c-35 -14 -67 -58 -67 -91 0 -9 -6
-18 -12 -20 -7 -3 -292 -34 -633 -70 -341 -36 -639 -68 -662 -71 -38 -6 -43
-4 -57 24 -17 33 -60 55 -100 50 -26 -3 -35 9 -168 241 l-141 243 16 28 c19
32 22 82 6 112 -6 11 -26 26 -45 34 -29 12 -39 12 -68 0 -40 -17 -56 -42 -56
-88 l0 -33 -330 -165 -330 -165 -16 23 c-32 46 -115 66 -178 43 -23 -9 -29 -3
-110 109 l-86 118 17 31 c16 28 17 33 3 58 -8 16 -31 36 -50 45 l-36 18 -77
347 -77 347 25 26 c29 30 33 74 10 107 -14 20 -1 46 203 429 197 370 220 409
240 406 30 -4 70 22 82 54 19 50 -34 113 -84 100 -56 -14 -79 -70 -52 -121
l18 -32 -217 -407 -217 -406 -34 0 c-44 0 -74 -30 -74 -73 0 -38 34 -77 66
-77 19 0 27 -30 93 -327 40 -181 76 -340 81 -355 26 -79 -21 3 -165 291 -152
305 -158 321 -142 339 23 25 22 77 -3 102 -11 11 -20 25 -20 31 0 6 56 198
126 427 69 230 127 425 130 435 3 9 12 17 19 17 42 0 85 43 85 86 0 23 -55 74
-80 74 -12 0 -35 -14 -52 -30z m1259 -1940 c16 -13 41 -20 67 -20 l42 0 141
-247 141 -247 -19 -24 c-30 -39 -25 -89 14 -126 l33 -30 -83 -386 c-45 -212
-90 -418 -98 -457 -14 -63 -19 -73 -38 -73 -34 0 -67 -39 -67 -80 0 -20 4 -40
10 -46 6 -6 5 -17 -5 -31 -13 -19 -22 -21 -64 -16 -44 5 -52 3 -75 -20 -19
-19 -26 -36 -26 -66 0 -34 -4 -42 -35 -60 l-36 -21 -30 22 c-17 13 -44 22 -64
22 -27 0 -36 5 -44 26 -45 112 -521 1365 -521 1370 0 4 11 13 25 20 38 20 69
92 61 143 l-6 42 322 162 c178 89 325 162 326 162 2 1 15 -8 29 -19z m366
-1900 l103 -133 -19 -38 c-24 -49 -16 -90 25 -124 20 -17 42 -25 67 -25 l38 0
171 -396 172 -397 -25 -19 c-15 -11 -30 -38 -36 -64 -6 -24 -15 -44 -18 -44
-4 0 -279 -50 -612 -111 -464 -85 -605 -107 -608 -97 -6 17 -52 63 -69 69 -11
4 14 135 110 579 l123 573 43 15 c54 18 84 61 80 115 -3 34 0 40 34 59 37 21
38 21 58 3 51 -46 140 -6 140 62 0 19 -5 43 -11 54 -18 35 10 54 75 53 l56 -1
103 -133z"/>
<path d="M2770 1785 c-17 -18 -24 -36 -23 -61 3 -113 173 -112 173 1 0 77 -97
116 -150 60z"/>
<path d="M2839 1265 c-34 -18 -53 -65 -45 -109 14 -76 111 -103 167 -47 82 82
-20 212 -122 156z"/>
<path d="M3029 941 c-57 -58 -21 -146 60 -146 50 0 79 26 88 78 5 31 1 40 -25
67 -41 40 -83 41 -123 1z"/>
<path d="M4604 4110 c-58 -24 -70 -95 -25 -141 40 -40 82 -39 123 1 26 27 30
36 25 67 -4 20 -14 45 -24 55 -22 21 -70 31 -99 18z"/>
</g>
</svg>
